<?xml version="1.0" encoding="UTF-8" standalone="no"?>
<svg xmlns:rdf="http://www.w3.org/1999/02/22-rdf-syntax-ns#" xmlns="http://www.w3.org/2000/svg" height="248.53mm" width="188.54mm" version="1.1" xmlns:cc="http://creativecommons.org/ns#" xmlns:dc="http://purl.org/dc/elements/1.1/" viewBox="0 0 668.04169 880.63155">
<g transform="translate(271.67 153.97)">
<g fill-rule="evenodd" stroke="#000" stroke-width="11.2" fill="#ccc">
<path d="m257.79-141.29-162.03 231.39c-13.654 19.5 3.1784 51.143-10.476 70.643l-348.61 497.87c-18.319 26.162 60.167 81.119 78.486 54.957l348.61-497.87c13.654-19.5 49.146-14.505 62.8-34.005l162.03-231.4c4.3178-6.1665 1.2645-23.483-4.902-27.801-6.1665-4.3178-23.483-1.2645-27.801 4.902l-116.79 166.78c-6.1063 8.7207-22.458-2.7286-16.351-11.449l116.78-166.78c4.3178-6.1665 1.2645-23.483-4.902-27.801-6.1664-4.3178-23.483-1.2645-27.801 4.902l-116.78 166.79c-6.1063 8.7207-22.458-2.7286-16.351-11.449l116.78-166.78c4.3178-6.1665 1.2645-23.483-4.902-27.801-6.1664-4.3178-23.483-1.2645-27.801 4.902z"/>
<path d="m-234.94 26.109c-26.264-37.509-22.711-119.66 14.37-146.52 15.542-11.26 33.473-7.8783 44.481 7.8432l540.41 771.78c18.319 26.162-60.167 81.119-78.486 54.957l-311.42-444.76c-9.6549-13.789-25.667 19.026-35.322 5.2378z"/>
</g>
</g>
</svg>
